<svg xmlns="http://www.w3.org/2000/svg" viewBox="0 0 100 100">
  <!-- Left link — dark navy -->
  <path fill="#1D3461" d="
    M50,12
    C34,12 20,25 20,50
    C20,75 34,88 50,88
    C44,88 38,80 38,50
    C38,20 44,12 50,12 Z
    M50,12
    C56,12 64,18 68,28
    C62,20 56,18 50,22
    C44,18 44,12 50,12 Z
    M50,88
    C44,88 38,82 32,72
    C38,80 44,82 50,78
    C56,82 56,88 50,88 Z
  "/>
  <!-- Right link — cyan -->
  <path fill="#00A3E0" d="
    M50,12
    C66,12 80,25 80,50
    C80,75 66,88 50,88
    C56,88 62,80 62,50
    C62,20 56,12 50,12 Z
    M50,12
    C44,12 36,18 32,28
    C38,20 44,18 50,22
    C56,18 56,12 50,12 Z
    M50,88
    C56,88 62,82 68,72
    C62,80 56,82 50,78
    C44,82 44,88 50,88 Z
  "/>
</svg>
